HIERARCHY
ROOT Hips
{
	OFFSET -0.001795 -0.223333 0.028219
	CHANNELS 6 Xposition Yposition Zposition Zrotation Yrotation Xrotation 
	JOINT LeftUpLeg
	{
		OFFSET 0.069520 -0.091406 -0.006815
		CHANNELS 3 Zrotation Yrotation Xrotation
		JOINT LeftLeg
		{
			OFFSET 0.034277 -0.375199 -0.004496
			CHANNELS 3 Zrotation Yrotation Xrotation
			JOINT LeftFoot
			{
				OFFSET -0.013596 -0.397961 -0.043693
				CHANNELS 3 Zrotation Yrotation Xrotation
				JOINT LeftToe
				{
					OFFSET 0.026358 -0.055791 0.119288
					CHANNELS 3 Zrotation Yrotation Xrotation
					End Site
					{
						OFFSET 0.000000 0.000000 0.000000
					}
				}
			}
		}
	}
	JOINT RightUpLeg
	{
		OFFSET -0.067670 -0.090522 -0.004320
		CHANNELS 3 Zrotation Yrotation Xrotation
		JOINT RightLeg
		{
			OFFSET -0.038290 -0.382569 -0.008850
			CHANNELS 3 Zrotation Yrotation Xrotation
			JOINT RightFoot
			{
				OFFSET 0.015774 -0.398415 -0.042312
				CHANNELS 3 Zrotation Yrotation Xrotation
				JOINT RightToe
				{
					OFFSET -0.025372 -0.048144 0.123348
					CHANNELS 3 Zrotation Yrotation Xrotation
					End Site
					{
						OFFSET 0.000000 0.000000 0.000000
					}
				}
			}
		}
	}
	JOINT Spine
	{
		OFFSET -0.002533 0.108963 -0.026696
		CHANNELS 3 Zrotation Yrotation Xrotation
		JOINT Spine1
		{
			OFFSET 0.005487 0.135180 0.001092
			CHANNELS 3 Zrotation Yrotation Xrotation
			JOINT Spine2
			{
				OFFSET 0.001457 0.052922 0.025425
				CHANNELS 3 Zrotation Yrotation Xrotation
				JOINT Neck
				{
					OFFSET -0.002778 0.213870 -0.042857
					CHANNELS 3 Zrotation Yrotation Xrotation
					JOINT Head
					{
						OFFSET 0.005152 0.064970 0.051349
						CHANNELS 3 Zrotation Yrotation Xrotation
						End Site
						{
							OFFSET 0.000000 0.000000 0.000000
						}
					}
				}
				JOINT LeftShoulder
				{
					OFFSET 0.078845 0.121749 -0.034090
					CHANNELS 3 Zrotation Yrotation Xrotation
					JOINT LeftArm
					{
						OFFSET 0.090977 0.030469 -0.008868
						CHANNELS 3 Zrotation Yrotation Xrotation
						JOINT LeftForeArm
						{
							OFFSET 0.259612 -0.012772 -0.027456
							CHANNELS 3 Zrotation Yrotation Xrotation
							JOINT LeftHand
							{
								OFFSET 0.249234 0.008986 -0.001171
								CHANNELS 3 Zrotation Yrotation Xrotation
								End Site
								{
									OFFSET 0.000000 0.000000 0.000000
								}
							}
						}
					}
				}
				JOINT RightShoulder
				{
					OFFSET -0.081759 0.118833 -0.038615
					CHANNELS 3 Zrotation Yrotation Xrotation
					JOINT RightArm
					{
						OFFSET -0.096012 0.032551 -0.009143
						CHANNELS 3 Zrotation Yrotation Xrotation
						JOINT RightForeArm
						{
							OFFSET -0.253742 -0.013329 -0.021401
							CHANNELS 3 Zrotation Yrotation Xrotation
							JOINT RightHand
							{
								OFFSET -0.255298 0.007772 -0.005559
								CHANNELS 3 Zrotation Yrotation Xrotation
								End Site
								{
									OFFSET 0.000000 0.000000 0.000000
								}
							}
						}
					}
				}
			}
		}
	}
}
MOTION
Frames: 14
Frame Time: 0.050000
0.000000 0.955800 0.000000 1.309644 -1.372027 -3.020338 5.482033 -0.510157 -11.551021 -3.792688 0.645964 39.110850 1.277926 5.940788 9.608300 0.000000 0.000000 0.000000 -2.566537 1.147972 -13.960283 0.340491 0.711242 18.092389 1.905882 -2.642811 14.688152 0.000000 0.000000 0.000000 1.038894 -0.786501 16.713930 4.289223 -0.461213 -24.469432 -0.280363 1.983247 28.139154 -3.021332 3.373461 -12.898373 0.000000 0.000000 0.000000 -24.370738 8.486350 -6.889831 -54.465892 18.017923 -16.809786 -7.599657 -25.618615 3.132937 0.000000 0.000000 0.000000 13.813162 1.148159 0.200748 59.481160 -12.181678 -14.629577 5.934953 25.404092 2.508082 0.000000 0.000000 0.000000 
0.004777 0.955302 -0.026401 0.943784 -2.213468 -2.689879 5.987744 -0.313187 -7.950180 -3.623106 0.786465 42.742454 0.141699 6.198896 17.358052 0.000000 0.000000 0.000000 -2.050758 1.391318 -15.915696 1.078819 0.542625 17.938866 0.462400 -5.602970 15.329147 0.000000 0.000000 0.000000 1.213093 -0.721663 15.021373 6.732935 -1.091591 -24.181826 -3.305560 3.441162 27.076380 -2.064965 2.826234 -14.333472 0.000000 0.000000 0.000000 -20.979780 9.800860 -7.301798 -56.746070 19.247826 -18.009133 -7.531065 -23.436873 2.777379 0.000000 0.000000 0.000000 13.749564 0.066094 -0.224738 58.816054 -17.602681 -16.749460 12.050336 23.675692 3.480318 0.000000 0.000000 0.000000 
0.011859 0.948014 -0.056290 0.939967 -1.525911 -3.784162 5.829097 -0.115370 -2.769250 -2.967018 0.265411 42.393604 -2.991666 2.408018 19.662372 0.000000 0.000000 0.000000 -2.780219 1.329702 -16.475531 1.841927 0.299889 17.595180 -0.332822 -6.981477 15.600595 0.000000 0.000000 0.000000 2.233558 -0.824873 14.396210 4.299388 -0.528904 -23.554161 -2.661696 0.477342 28.724288 -2.545488 2.891733 -19.590829 0.000000 0.000000 0.000000 -22.487549 9.425293 -6.599687 -55.669233 16.931077 -16.803274 -7.096144 -27.034726 3.360475 0.000000 0.000000 0.000000 12.584341 -1.045254 -1.086847 60.757092 -21.116468 -19.389122 12.962177 23.577253 3.594964 0.000000 0.000000 0.000000 
0.021047 0.940390 -0.091258 0.659265 -1.173046 -4.990313 5.045801 0.138737 2.713603 -1.261595 -0.635479 37.830794 -4.345092 -1.293990 15.196856 0.000000 0.000000 0.000000 -3.390383 1.379459 -18.361995 2.646993 0.068080 17.432684 -1.145875 -9.517454 20.518180 0.000000 0.000000 0.000000 1.353536 -0.777943 15.617690 5.474101 -0.778528 -24.232458 -3.713835 -0.864947 29.786897 -3.281815 3.198051 -17.219138 0.000000 0.000000 0.000000 -24.528370 8.531457 -5.973070 -56.650439 15.742760 -16.825000 -3.311903 -27.741109 2.667454 0.000000 0.000000 0.000000 13.251619 -0.725037 -1.127808 61.233575 -23.587084 -21.042752 13.885455 22.955538 3.639328 0.000000 0.000000 0.000000 
0.032890 0.931678 -0.134309 -0.125450 -0.849234 -5.321400 5.321694 0.222631 4.734458 -0.616347 -0.851415 32.312024 -4.007164 -3.138546 9.779350 0.000000 0.000000 0.000000 -3.604827 1.482901 -20.351511 2.510274 0.023122 14.595989 -0.923212 -10.552725 27.623661 0.000000 0.000000 0.000000 0.517126 -0.710957 16.330299 7.597164 -1.486534 -22.441742 -4.860944 -1.274939 27.835904 -3.463343 3.302640 -17.229294 0.000000 0.000000 0.000000 -25.835707 7.700884 -5.734011 -54.892754 14.147924 -15.410997 -5.939821 -29.368380 3.453453 0.000000 0.000000 0.000000 14.681501 -1.961783 -1.934475 60.845382 -25.091497 -21.429746 14.428513 22.987529 3.733400 0.000000 0.000000 0.000000 
0.046385 0.926238 -0.184228 -0.491899 -0.844459 -5.698885 4.290227 0.223734 3.961847 -0.212974 -0.943593 29.946900 -1.734038 -1.882312 3.564145 0.000000 0.000000 0.000000 -3.646465 1.560653 -21.523728 0.737813 0.295212 10.674601 0.996357 -8.841883 31.815483 0.000000 0.000000 0.000000 -0.806943 -0.570133 17.474282 7.925319 -1.566202 -22.581572 -4.252807 -2.581082 28.465813 -2.690096 2.515557 -17.084226 0.000000 0.000000 0.000000 -25.491571 6.429377 -4.391989 -55.067938 11.244391 -14.396970 -5.564267 -29.151003 3.425809 0.000000 0.000000 0.000000 14.067468 -2.281938 -2.261643 59.688839 -25.235570 -21.199118 15.583099 23.586782 4.008252 0.000000 0.000000 0.000000 
0.059278 0.926387 -0.236952 -0.968286 -2.111983 -6.501855 3.895387 0.165875 2.398482 -1.124773 -0.428326 28.781930 0.154445 0.577757 0.559367 0.000000 0.000000 0.000000 -3.642358 1.609834 -21.458956 0.392048 0.214771 6.600600 2.365346 -7.432000 32.101248 0.000000 0.000000 0.000000 -1.760560 -0.441010 19.420066 8.089179 -1.829775 -20.842451 -3.198443 -1.697981 26.942212 -3.330243 3.027443 -17.912995 0.000000 0.000000 0.000000 -25.339847 5.342671 -3.811179 -54.406332 8.004215 -12.679644 -6.038334 -29.447701 3.521540 0.000000 0.000000 0.000000 13.361334 -2.664014 -2.377268 60.882711 -23.606603 -20.700165 15.680185 23.795826 4.075001 0.000000 0.000000 0.000000 
0.070074 0.931734 -0.288330 -1.384333 -2.701031 -6.520139 3.431141 0.011898 -0.224472 -1.269211 -0.285170 26.580526 0.944469 2.727558 1.841934 0.000000 0.000000 0.000000 -4.391766 1.507236 -21.461342 2.048256 -0.007061 8.074226 0.311204 -8.493220 24.396450 0.000000 0.000000 0.000000 -3.042345 -0.222638 20.451486 8.584635 -1.994536 -20.782255 -2.277793 -1.530663 27.063568 -4.799537 4.047686 -18.382945 0.000000 0.000000 0.000000 -25.085275 5.554034 -3.839177 -52.862270 5.877273 -11.508532 -8.168627 -29.022351 4.012488 0.000000 0.000000 0.000000 12.466556 -0.927046 -1.468434 61.071071 -21.555312 -19.811424 16.899496 24.826506 4.527872 0.000000 0.000000 0.000000 
0.078670 0.940364 -0.337807 -1.575032 -3.519755 -6.644074 3.969772 -0.100602 -2.427843 -2.328271 0.170323 25.014517 0.254840 1.918862 3.451362 0.000000 0.000000 0.000000 -4.256506 1.657871 -22.592035 3.140139 0.004512 16.258289 -1.935428 -10.942293 19.594563 0.000000 0.000000 0.000000 -3.062544 -0.193364 21.423948 7.925758 -1.819530 -20.954091 -1.554225 -0.561257 27.041132 -5.288714 4.504080 -17.763021 0.000000 0.000000 0.000000 -25.953750 4.473813 -3.396896 -51.439237 5.731333 -11.167073 -7.663901 -29.422725 3.874385 0.000000 0.000000 0.000000 12.918380 0.072469 -0.960821 60.119214 -18.483686 -17.934546 16.607537 25.895457 4.707366 0.000000 0.000000 0.000000 
0.085330 0.949435 -0.386453 -1.849449 -4.184821 -6.921994 3.989984 -0.220035 -4.740250 -2.217057 0.176093 23.088765 -0.335928 2.381201 7.989989 0.000000 0.000000 0.000000 -4.215339 1.552800 -20.859873 4.644227 -0.119920 27.152086 -3.284854 -12.580364 16.631972 0.000000 0.000000 0.000000 -3.531814 -0.084950 21.923685 7.979272 -1.904194 -20.509989 -1.000229 1.144988 26.988207 -5.815373 5.091767 -18.486732 0.000000 0.000000 0.000000 -25.634870 3.618661 -3.259424 -50.809933 5.659480 -10.902636 -7.398456 -28.730496 3.594961 0.000000 0.000000 0.000000 14.287684 2.179717 0.177025 59.053136 -15.141622 -15.891497 13.769488 28.143170 4.550808 0.000000 0.000000 0.000000 
0.090132 0.954711 -0.435054 -1.687457 -3.064564 -6.482255 3.855538 -0.397155 -7.540721 -2.097171 0.061596 20.698683 -1.880779 0.949195 11.241540 0.000000 0.000000 0.000000 -5.082078 1.175385 -18.112814 5.485006 -0.372737 38.332772 -3.577278 -12.507535 14.646998 0.000000 0.000000 0.000000 -4.202398 -0.011050 21.254129 7.872475 -1.883286 -20.075913 -0.278729 1.307316 26.794293 -5.791786 5.199833 -16.867051 0.000000 0.000000 0.000000 -24.666122 3.779919 -3.531905 -51.317142 6.369538 -11.168228 -7.120711 -28.296185 3.409128 0.000000 0.000000 0.000000 14.137415 3.684369 1.050589 58.463902 -11.279277 -13.810205 13.228599 29.473304 4.695908 0.000000 0.000000 0.000000 
0.092233 0.956788 -0.484634 -1.299636 -2.421135 -5.686497 3.169310 -0.624722 -10.246892 -2.259505 0.088201 18.605060 -0.896943 2.673778 11.276909 0.000000 0.000000 0.000000 -4.940404 0.856232 -13.114235 4.822427 -0.002257 46.850416 -2.526611 -10.032813 12.237650 0.000000 0.000000 0.000000 -5.244576 0.149721 20.238036 7.991328 -2.036768 -18.545568 0.401818 3.550258 25.473099 -3.847716 4.166673 -16.079811 0.000000 0.000000 0.000000 -23.159585 3.341292 -3.948048 -51.180172 9.008956 -11.850263 -8.811523 -27.584463 3.513513 0.000000 0.000000 0.000000 14.709988 4.655090 1.949769 56.800540 -8.140538 -11.726180 11.176264 31.738597 4.650218 0.000000 0.000000 0.000000 
0.091077 0.953904 -0.536450 -0.424260 -0.714739 -4.744202 2.366739 -0.970547 -13.721562 -2.432243 0.076551 16.590526 -1.272322 2.774631 12.828274 0.000000 0.000000 0.000000 -5.381596 0.446065 -6.937595 3.370414 0.474555 50.493268 -0.597202 -6.338954 12.420268 0.000000 0.000000 0.000000 -6.836238 0.361160 19.320335 8.273407 -2.047853 -18.694234 1.886806 4.645356 25.678003 -3.384377 4.100600 -15.572441 0.000000 0.000000 0.000000 -22.599975 3.032873 -4.282313 -50.545478 11.626380 -12.607322 -10.024725 -27.361813 3.636210 0.000000 0.000000 0.000000 13.261313 5.271334 2.570477 57.438010 -5.584591 -10.568350 8.829892 34.104749 4.525848 0.000000 0.000000 0.000000 
0.085806 0.948158 -0.592405 0.595402 -0.626365 -3.964430 2.844831 -1.119900 -16.714052 -3.673351 0.402926 14.317659 -0.722254 4.268642 14.719205 0.000000 0.000000 0.000000 -4.850782 0.080308 -0.022110 1.155131 1.765162 49.621281 3.157335 -2.126448 19.581903 0.000000 0.000000 0.000000 -7.847630 0.494842 17.448057 8.669920 -2.348152 -16.868377 2.511280 7.345359 25.477796 -2.206125 3.671484 -16.044938 0.000000 0.000000 0.000000 -22.481800 3.584537 -5.418162 -49.535506 13.961877 -13.007060 -11.759587 -27.508325 3.878959 0.000000 0.000000 0.000000 13.536043 6.671770 3.721382 55.773816 -2.291506 -8.702951 6.547762 36.544409 4.343775 0.000000 0.000000 0.000000 
